HIERARCHY
ROOT root     
{
	OFFSET 0.0000 0.0000 0.0000
	CHANNELS 6 Xposition Yposition Zposition Zrotation Yrotation Xrotation
	JOINT pelvis   
	{
		OFFSET 0.0000 0.0000 0.0000
		CHANNELS 3 Zrotation Yrotation Xrotation
		JOINT thorax   
		{
			OFFSET 0.0000 23.0750 -5.0000
			CHANNELS 3 Zrotation Yrotation Xrotation
			JOINT rclavicle
			{
				OFFSET 0.0000 28.0009 0.0000
				CHANNELS 3 Zrotation Yrotation Xrotation
				JOINT rhumerus 
				{
					OFFSET -18.5725 5.5939 0.0000
					CHANNELS 3 Zrotation Yrotation Xrotation
					JOINT rradius  
					{
						OFFSET -24.8459 0.0000 0.0000
						CHANNELS 3 Zrotation Yrotation Xrotation
						JOINT rhand    
						{
							OFFSET -24.5477 0.0000 0.0000
							CHANNELS 3 Zrotation Yrotation Xrotation
							End Site
							{
								OFFSET -8.1826 0.0000 0.0000
							}
						}
					}
				}
			}
			JOINT lclavicle
			{
				OFFSET 0.0000 28.0009 0.0000
				CHANNELS 3 Zrotation Yrotation Xrotation
				JOINT lhumerus 
				{
					OFFSET 18.5725 5.5939 0.0000
					CHANNELS 3 Zrotation Yrotation Xrotation
					JOINT lradius  
					{
						OFFSET 24.8459 0.0000 0.0000
						CHANNELS 3 Zrotation Yrotation Xrotation
						JOINT lhand    
						{
							OFFSET 24.5477 0.0000 0.0000
							CHANNELS 3 Zrotation Yrotation Xrotation
							End Site
							{
								OFFSET 8.1826 0.0000 0.0000
							}
						}
					}
				}
			}
			JOINT head     
			{
				OFFSET 0.0000 35.2030 0.0000
				CHANNELS 3 Zrotation Yrotation Xrotation
				End Site
				{
					OFFSET 0.0000 11.7343 0.0000
				}
			}
		}
		JOINT rfemur   
		{
			OFFSET -8.2817 0.0000 0.0000
			CHANNELS 3 Zrotation Yrotation Xrotation
			JOINT rtibia   
			{
				OFFSET 0.0000 -43.3627 0.0000
				CHANNELS 3 Zrotation Yrotation Xrotation
				JOINT rfoot    
				{
					OFFSET 0.0000 -38.2947 0.0000
					CHANNELS 3 Zrotation Yrotation Xrotation
					JOINT rtoes    
					{
						OFFSET 0.0000 0.0000 16.6054
						CHANNELS 3 Zrotation Yrotation Xrotation
						End Site
						{
							OFFSET 0.0000 0.0000 5.5351
						}
					}
				}
			}
		}
		JOINT lfemur   
		{
			OFFSET 8.2817 0.0000 0.0000
			CHANNELS 3 Zrotation Yrotation Xrotation
			JOINT ltibia   
			{
				OFFSET 0.0000 -43.3627 0.0000
				CHANNELS 3 Zrotation Yrotation Xrotation
				JOINT lfoot    
				{
					OFFSET 0.0000 -38.2947 0.0000
					CHANNELS 3 Zrotation Yrotation Xrotation
					JOINT ltoes    
					{
						OFFSET 0.0000 0.0000 16.6054
						CHANNELS 3 Zrotation Yrotation Xrotation
						End Site
						{
							OFFSET 0.0000 0.0000 5.5351
						}
					}
				}
			}
		}
	}
}
MOTION
Frames: 9
Frame Time: .0333333
147.26 73.235 13.546 -140.799 -82.2572 168.199 0 -0 0 -14.7404 8.08881 10.6131 19.2428 -11.2548 -2.63333e-05 50.0009 0.532835 31.8924 -180 76.193 -180 3.10435 2.09741 0.056799 -12.0155 20.5825 8.59143e-05 -50.3077 32.987 19.3924 0 -82.3472 0 -7.94999 1.84801 -0.128398 3.5347 -0.97457 -22.8373 2.6662 -3.02394 -2.72371 -0 -0 37.8701 5.42553e-06 3.71032 6.8664 0.444202 -1.71016e-06 -86.6045 -6.06658 11.7687 -79.1795 -0 -0 49.8938 4.45332e-07 6.78834 11.166 1.32047 -4.69401e-06 -25.802 
146.06 73.158 13.632 -140.116 -82.5473 167.636 0 -0 0 -15.1578 7.75155 10.9063 19.4659 -10.9703 -6.5606e-05 50.9409 0.50318 31.507 -180 76.7774 -180 2.76886 2.03855 0.0493023 -12.2552 20.0648 -1.34808e-05 -50.7113 32.0395 18.448 -2.16653e-06 -81.4086 1.86382e-06 -7.64586 1.80968 -0.1209 3.43439 -0.897039 -23.2244 2.4935 -3.86772 -3.6876 -0 -0 40.2639 1.53836e-08 3.45629 9.8098 0.589594 -2.44263e-06 -87.6117 -6.3805 11.695 -79.4476 -0 -0 51.5836 2.88683e-06 6.36906 10.3592 1.14989 3.65696e-06 -24.4533 
144.88 73.092 13.725 -139.415 -82.863 167.033 0 -0 0 -15.5641 7.38446 11.2521 19.6602 -10.6606 -9.6862e-06 51.9497 0.485819 31.0909 -180 77.4889 -180 2.30832 2.00997 0.0405 -12.4827 19.4842 6.9926e-05 -51.0926 31.0508 17.4864 2.35536e-06 -80.4671 -2.78375e-06 -7.3533 1.77144 -0.113805 3.31442 -0.831082 -23.5095 2.3432 -4.76915 -4.75755 -0 -0 42.7742 -1.48384e-05 3.00598 12.9062 0.672006 1.0586e-06 -87.5781 -6.66435 11.5583 -79.5878 -0 -0 53.1545 -8.4322e-06 6.04269 9.2809 0.978112 4.05448e-06 -23.1008 
143.72 73.037 13.821 -138.686 -83.2007 166.391 0 -0 0 -15.9578 6.99358 11.6343 19.8266 -10.3321 4.52009e-05 53.0181 0.487134 30.6493 -180 78.3385 -180 1.7571 2.02184 0.0310005 -12.7037 18.8546 -4.20612e-05 -51.4273 30.0187 16.5333 0 -79.5362 0 -7.08108 1.73511 -0.1074 3.17259 -0.775303 -23.6842 2.22274 -5.69153 -5.93063 -0 -0 45.373 2.14127e-06 2.37515 16.0367 0.656499 3.87274e-06 -86.3593 -6.90746 11.3674 -79.614 -0 -0 54.6041 -4.82798e-06 5.8133 8.00651 0.812506 5.34742e-06 -21.8002 
142.59 72.992 13.92 -137.926 -83.5424 165.713 0 -0 0 -16.3394 6.58649 12.032 19.9673 -9.98893 -3.30388e-05 54.1324 0.506701 30.1769 -180 79.312 -180 1.15557 2.07995 0.0209992 -12.924 18.1856 0.000138591 -51.6934 28.9473 15.6004 1.93967e-06 -78.6252 -2.36869e-06 -6.83578 1.70467 -0.101798 3.00721 -0.727636 -23.7392 2.1408 -6.5965 -7.20585 -0 -0 48.0302 -7.30566e-06 1.58827 19.0368 0.518204 1.28514e-06 -83.9824 -7.10123 11.1311 -79.5489 -0 -0 55.9355 -5.90471e-06 5.67824 6.61761 0.656502 4.56934e-06 -20.6118 
141.49 72.957 14.019 -137.127 -83.8796 165.003 0 -0 0 -16.7069 6.17098 12.4302 20.0836 -9.63843 1.5116e-05 55.2796 0.548786 29.6757 -180 80.4062 -180 0.54269 2.18698 0.0103997 -13.1466 17.4995 4.72497e-05 -51.8776 27.8222 14.706 4.38173e-07 -77.7396 -1.02464e-06 -6.61767 1.68427 -0.0973955 2.81814 -0.684569 -23.6773 2.10616 -7.45078 -8.58502 -0 -0 50.7301 -3.78301e-06 0.677302 21.7312 0.250803 9.73914e-07 -80.6755 -7.24355 10.8644 -79.4155 -0 -0 57.1498 -5.51007e-06 5.629 5.19488 0.511299 -1.31941e-06 -19.598 
140.43 72.936 14.117 -136.301 -84.2053 164.28 0 -0 0 -17.0566 5.75669 12.8201 20.1811 -9.29281 -7.62623e-05 56.4427 0.624316 29.149 -180 81.6179 -180 -0.0471998 2.34035 -0.000999988 -13.3619 16.8315 -1.36909e-05 -51.974 26.6107 13.8791 0 -76.8566 0 -6.42455 1.67985 -0.0942981 2.60575 -0.643321 -23.5049 2.1277 -8.22297 -10.0714 -0 -0 53.4616 -1.9648e-07 -0.319502 23.9482 -0.129702 -6.52232e-07 -76.782 -7.33306 10.5801 -79.2382 -0 -0 58.2546 2.03601e-06 5.65305 3.80899 0.376801 1.68232e-06 -18.8122 
139.39 72.928 14.21 -135.434 -84.4808 163.528 0 -0 0 -17.3854 5.35281 13.1869 20.2592 -8.9334 -1.23772e-05 57.6118 0.704786 28.581 -180 82.9375 -180 -0.582308 2.53287 -0.0129001 -13.6079 16.1349 8.9171e-05 -51.9678 25.3918 13.064 0 -76.038 0 -6.24944 1.69155 -0.0922985 2.36795 -0.596515 -23.226 2.21675 -8.88767 -11.6709 -0 -0 56.2164 -4.74597e-06 -1.3676 25.5854 -0.590716 -4.52522e-07 -72.7598 -7.3763 10.3047 -79.0419 -0 -0 59.2586 1.98375e-06 5.72934 2.51553 0.252304 1.80104e-06 -18.2782 
138.4 72.935 14.298 -134.56 -84.7148 162.79 0 -0 0 -17.6905 4.96933 13.5326 20.3253 -8.59147 -5.24691e-05 58.7687 0.823438 27.9918 -180 84.344 -180 -1.0497 2.75551 -0.0252 -13.842 15.4955 1.09699e-05 -51.8805 24.0558 12.3313 -1.32536e-06 -75.2163 1.02097e-06 -6.08329 1.72842 -0.0919005 2.1072 -0.5434 -22.8647 2.37522 -9.42871 -13.3851 -0 -0 58.9962 -3.13521e-06 -2.42002 26.5433 -1.082 -6.53928e-06 -68.9249 -7.37976 10.051 -78.8412 -0 -0 60.1702 1.6044e-06 5.84079 1.34813 0.1379 4.66812e-07 -18.0016 
